<?xml version="1.0" encoding="utf-8" standalone="no"?>
<!DOCTYPE svg PUBLIC "-//W3C//DTD SVG 1.1//EN"
  "http://www.w3.org/Graphics/SVG/1.1/DTD/svg11.dtd">
<svg xmlns:xlink="http://www.w3.org/1999/xlink" width="720pt" height="432pt" viewBox="0 0 720 432" xmlns="http://www.w3.org/2000/svg" version="1.1">
 <metadata>
  <rdf:RDF xmlns:dc="http://purl.org/dc/elements/1.1/" xmlns:cc="http://creativecommons.org/ns#" xmlns:rdf="http://www.w3.org/1999/02/22-rdf-syntax-ns#">
   <cc:Work>
    <dc:type rdf:resource="http://purl.org/dc/dcmitype/StillImage"/>
    <dc:date>2025-07-07T21:37:35.736554</dc:date>
    <dc:format>image/svg+xml</dc:format>
    <dc:creator>
     <cc:Agent>
      <dc:title>Matplotlib v3.6.3, https://matplotlib.org/</dc:title>
     </cc:Agent>
    </dc:creator>
   </cc:Work>
  </rdf:RDF>
 </metadata>
 <defs>
  <style type="text/css">*{stroke-linejoin: round; stroke-linecap: butt}</style>
 </defs>
 <g id="figure_1">
  <g id="patch_1">
   <path d="M 0 432 
L 720 432 
L 720 0 
L 0 0 
z
" style="fill: #ffffff"/>
  </g>
  <g id="axes_1">
   <g id="patch_2">
    <path d="M 90 384.48 
L 648 384.48 
L 648 51.84 
L 90 51.84 
z
" style="fill: #ffffff"/>
   </g>
   <g id="matplotlib.axis_1">
    <g id="xtick_1">
     <g id="line2d_1">
      <path d="M 115.363636 384.48 
L 115.363636 51.84 
" clip-path="url(#p4e9a7a3799)" style="fill: none; stroke-dasharray: 2.22,0.96; stroke-dashoffset: 0; stroke: #b0b0b0; stroke-opacity: 0.7; stroke-width: 0.6"/>
     </g>
     <g id="line2d_2">
      <defs>
       <path id="me4695787bb" d="M 0 0 
L 0 -3.5 
" style="stroke: #1a1a1a; stroke-width: 0.8"/>
      </defs>
      <g>
       <use xlink:href="#me4695787bb" x="115.363636" y="384.48" style="fill: #1a1a1a; stroke: #1a1a1a; stroke-width: 0.8"/>
      </g>
     </g>
     <g id="text_1">
      <!-- −20 -->
      <g style="fill: #1a1a1a" transform="translate(102.700824 397.098125) scale(0.12 -0.12)">
       <defs>
        <path id="DejaVuSans-2212" d="M 678 2272 
L 4684 2272 
L 4684 1741 
L 678 1741 
L 678 2272 
z
" transform="scale(0.015625)"/>
        <path id="DejaVuSans-32" d="M 1228 531 
L 3431 531 
L 3431 0 
L 469 0 
L 469 531 
Q 828 903 1448 1529 
Q 2069 2156 2228 2338 
Q 2531 2678 2651 2914 
Q 2772 3150 2772 3378 
Q 2772 3750 2511 3984 
Q 2250 4219 1831 4219 
Q 1534 4219 1204 4116 
Q 875 4013 500 3803 
L 500 4441 
Q 881 4594 1212 4672 
Q 1544 4750 1819 4750 
Q 2544 4750 2975 4387 
Q 3406 4025 3406 3419 
Q 3406 3131 3298 2873 
Q 3191 2616 2906 2266 
Q 2828 2175 2409 1742 
Q 1991 1309 1228 531 
z
" transform="scale(0.015625)"/>
        <path id="DejaVuSans-30" d="M 2034 4250 
Q 1547 4250 1301 3770 
Q 1056 3291 1056 2328 
Q 1056 1369 1301 889 
Q 1547 409 2034 409 
Q 2525 409 2770 889 
Q 3016 1369 3016 2328 
Q 3016 3291 2770 3770 
Q 2525 4250 2034 4250 
z
M 2034 4750 
Q 2819 4750 3233 4129 
Q 3647 3509 3647 2328 
Q 3647 1150 3233 529 
Q 2819 -91 2034 -91 
Q 1250 -91 836 529 
Q 422 1150 422 2328 
Q 422 3509 836 4129 
Q 1250 4750 2034 4750 
z
" transform="scale(0.015625)"/>
       </defs>
       <use xlink:href="#DejaVuSans-2212"/>
       <use xlink:href="#DejaVuSans-32" x="83.789062"/>
       <use xlink:href="#DejaVuSans-30" x="147.412109"/>
      </g>
     </g>
    </g>
    <g id="xtick_2">
     <g id="line2d_3">
      <path d="M 178.772727 384.48 
L 178.772727 51.84 
" clip-path="url(#p4e9a7a3799)" style="fill: none; stroke-dasharray: 2.22,0.96; stroke-dashoffset: 0; stroke: #b0b0b0; stroke-opacity: 0.7; stroke-width: 0.6"/>
     </g>
     <g id="line2d_4">
      <g>
       <use xlink:href="#me4695787bb" x="178.772727" y="384.48" style="fill: #1a1a1a; stroke: #1a1a1a; stroke-width: 0.8"/>
      </g>
     </g>
     <g id="text_2">
      <!-- −15 -->
      <g style="fill: #1a1a1a" transform="translate(166.109915 397.098125) scale(0.12 -0.12)">
       <defs>
        <path id="DejaVuSans-31" d="M 794 531 
L 1825 531 
L 1825 4091 
L 703 3866 
L 703 4441 
L 1819 4666 
L 2450 4666 
L 2450 531 
L 3481 531 
L 3481 0 
L 794 0 
L 794 531 
z
" transform="scale(0.015625)"/>
        <path id="DejaVuSans-35" d="M 691 4666 
L 3169 4666 
L 3169 4134 
L 1269 4134 
L 1269 2991 
Q 1406 3038 1543 3061 
Q 1681 3084 1819 3084 
Q 2600 3084 3056 2656 
Q 3513 2228 3513 1497 
Q 3513 744 3044 326 
Q 2575 -91 1722 -91 
Q 1428 -91 1123 -41 
Q 819 9 494 109 
L 494 744 
Q 775 591 1075 516 
Q 1375 441 1709 441 
Q 2250 441 2565 725 
Q 2881 1009 2881 1497 
Q 2881 1984 2565 2268 
Q 2250 2553 1709 2553 
Q 1456 2553 1204 2497 
Q 953 2441 691 2322 
L 691 4666 
z
" transform="scale(0.015625)"/>
       </defs>
       <use xlink:href="#DejaVuSans-2212"/>
       <use xlink:href="#DejaVuSans-31" x="83.789062"/>
       <use xlink:href="#DejaVuSans-35" x="147.412109"/>
      </g>
     </g>
    </g>
    <g id="xtick_3">
     <g id="line2d_5">
      <path d="M 242.181818 384.48 
L 242.181818 51.84 
" clip-path="url(#p4e9a7a3799)" style="fill: none; stroke-dasharray: 2.22,0.96; stroke-dashoffset: 0; stroke: #b0b0b0; stroke-opacity: 0.7; stroke-width: 0.6"/>
     </g>
     <g id="line2d_6">
      <g>
       <use xlink:href="#me4695787bb" x="242.181818" y="384.48" style="fill: #1a1a1a; stroke: #1a1a1a; stroke-width: 0.8"/>
      </g>
     </g>
     <g id="text_3">
      <!-- −10 -->
      <g style="fill: #1a1a1a" transform="translate(229.519006 397.098125) scale(0.12 -0.12)">
       <use xlink:href="#DejaVuSans-2212"/>
       <use xlink:href="#DejaVuSans-31" x="83.789062"/>
       <use xlink:href="#DejaVuSans-30" x="147.412109"/>
      </g>
     </g>
    </g>
    <g id="xtick_4">
     <g id="line2d_7">
      <path d="M 305.590909 384.48 
L 305.590909 51.84 
" clip-path="url(#p4e9a7a3799)" style="fill: none; stroke-dasharray: 2.22,0.96; stroke-dashoffset: 0; stroke: #b0b0b0; stroke-opacity: 0.7; stroke-width: 0.6"/>
     </g>
     <g id="line2d_8">
      <g>
       <use xlink:href="#me4695787bb" x="305.590909" y="384.48" style="fill: #1a1a1a; stroke: #1a1a1a; stroke-width: 0.8"/>
      </g>
     </g>
     <g id="text_4">
      <!-- −5 -->
      <g style="fill: #1a1a1a" transform="translate(296.745597 397.098125) scale(0.12 -0.12)">
       <use xlink:href="#DejaVuSans-2212"/>
       <use xlink:href="#DejaVuSans-35" x="83.789062"/>
      </g>
     </g>
    </g>
    <g id="xtick_5">
     <g id="line2d_9">
      <path d="M 369 384.48 
L 369 51.84 
" clip-path="url(#p4e9a7a3799)" style="fill: none; stroke-dasharray: 2.22,0.96; stroke-dashoffset: 0; stroke: #b0b0b0; stroke-opacity: 0.7; stroke-width: 0.6"/>
     </g>
     <g id="line2d_10">
      <g>
       <use xlink:href="#me4695787bb" x="369" y="384.48" style="fill: #1a1a1a; stroke: #1a1a1a; stroke-width: 0.8"/>
      </g>
     </g>
     <g id="text_5">
      <!-- 0 -->
      <g style="fill: #1a1a1a" transform="translate(365.1825 397.098125) scale(0.12 -0.12)">
       <use xlink:href="#DejaVuSans-30"/>
      </g>
     </g>
    </g>
    <g id="xtick_6">
     <g id="line2d_11">
      <path d="M 432.409091 384.48 
L 432.409091 51.84 
" clip-path="url(#p4e9a7a3799)" style="fill: none; stroke-dasharray: 2.22,0.96; stroke-dashoffset: 0; stroke: #b0b0b0; stroke-opacity: 0.7; stroke-width: 0.6"/>
     </g>
     <g id="line2d_12">
      <g>
       <use xlink:href="#me4695787bb" x="432.409091" y="384.48" style="fill: #1a1a1a; stroke: #1a1a1a; stroke-width: 0.8"/>
      </g>
     </g>
     <g id="text_6">
      <!-- 5 -->
      <g style="fill: #1a1a1a" transform="translate(428.591591 397.098125) scale(0.12 -0.12)">
       <use xlink:href="#DejaVuSans-35"/>
      </g>
     </g>
    </g>
    <g id="xtick_7">
     <g id="line2d_13">
      <path d="M 495.818182 384.48 
L 495.818182 51.84 
" clip-path="url(#p4e9a7a3799)" style="fill: none; stroke-dasharray: 2.22,0.96; stroke-dashoffset: 0; stroke: #b0b0b0; stroke-opacity: 0.7; stroke-width: 0.6"/>
     </g>
     <g id="line2d_14">
      <g>
       <use xlink:href="#me4695787bb" x="495.818182" y="384.48" style="fill: #1a1a1a; stroke: #1a1a1a; stroke-width: 0.8"/>
      </g>
     </g>
     <g id="text_7">
      <!-- 10 -->
      <g style="fill: #1a1a1a" transform="translate(488.183182 397.098125) scale(0.12 -0.12)">
       <use xlink:href="#DejaVuSans-31"/>
       <use xlink:href="#DejaVuSans-30" x="63.623047"/>
      </g>
     </g>
    </g>
    <g id="xtick_8">
     <g id="line2d_15">
      <path d="M 559.227273 384.48 
L 559.227273 51.84 
" clip-path="url(#p4e9a7a3799)" style="fill: none; stroke-dasharray: 2.22,0.96; stroke-dashoffset: 0; stroke: #b0b0b0; stroke-opacity: 0.7; stroke-width: 0.6"/>
     </g>
     <g id="line2d_16">
      <g>
       <use xlink:href="#me4695787bb" x="559.227273" y="384.48" style="fill: #1a1a1a; stroke: #1a1a1a; stroke-width: 0.8"/>
      </g>
     </g>
     <g id="text_8">
      <!-- 15 -->
      <g style="fill: #1a1a1a" transform="translate(551.592273 397.098125) scale(0.12 -0.12)">
       <use xlink:href="#DejaVuSans-31"/>
       <use xlink:href="#DejaVuSans-35" x="63.623047"/>
      </g>
     </g>
    </g>
    <g id="xtick_9">
     <g id="line2d_17">
      <path d="M 622.636364 384.48 
L 622.636364 51.84 
" clip-path="url(#p4e9a7a3799)" style="fill: none; stroke-dasharray: 2.22,0.96; stroke-dashoffset: 0; stroke: #b0b0b0; stroke-opacity: 0.7; stroke-width: 0.6"/>
     </g>
     <g id="line2d_18">
      <g>
       <use xlink:href="#me4695787bb" x="622.636364" y="384.48" style="fill: #1a1a1a; stroke: #1a1a1a; stroke-width: 0.8"/>
      </g>
     </g>
     <g id="text_9">
      <!-- 20 -->
      <g style="fill: #1a1a1a" transform="translate(615.001364 397.098125) scale(0.12 -0.12)">
       <use xlink:href="#DejaVuSans-32"/>
       <use xlink:href="#DejaVuSans-30" x="63.623047"/>
      </g>
     </g>
    </g>
   </g>
   <g id="matplotlib.axis_2">
    <g id="ytick_1">
     <g id="line2d_19">
      <path d="M 90 365.205986 
L 648 365.205986 
" clip-path="url(#p4e9a7a3799)" style="fill: none; stroke-dasharray: 2.22,0.96; stroke-dashoffset: 0; stroke: #b0b0b0; stroke-opacity: 0.7; stroke-width: 0.6"/>
     </g>
     <g id="line2d_20">
      <defs>
       <path id="m44f08480be" d="M 0 0 
L 3.5 0 
" style="stroke: #1a1a1a; stroke-width: 0.8"/>
      </defs>
      <g>
       <use xlink:href="#m44f08480be" x="90" y="365.205986" style="fill: #1a1a1a; stroke: #1a1a1a; stroke-width: 0.8"/>
      </g>
     </g>
     <g id="text_10">
      <!-- −0.2 -->
      <g style="fill: #1a1a1a" transform="translate(57.360625 369.765049) scale(0.12 -0.12)">
       <defs>
        <path id="DejaVuSans-2e" d="M 684 794 
L 1344 794 
L 1344 0 
L 684 0 
L 684 794 
z
" transform="scale(0.015625)"/>
       </defs>
       <use xlink:href="#DejaVuSans-2212"/>
       <use xlink:href="#DejaVuSans-30" x="83.789062"/>
       <use xlink:href="#DejaVuSans-2e" x="147.412109"/>
       <use xlink:href="#DejaVuSans-32" x="179.199219"/>
      </g>
     </g>
    </g>
    <g id="ytick_2">
     <g id="line2d_21">
      <path d="M 90 315.326743 
L 648 315.326743 
" clip-path="url(#p4e9a7a3799)" style="fill: none; stroke-dasharray: 2.22,0.96; stroke-dashoffset: 0; stroke: #b0b0b0; stroke-opacity: 0.7; stroke-width: 0.6"/>
     </g>
     <g id="line2d_22">
      <g>
       <use xlink:href="#m44f08480be" x="90" y="315.326743" style="fill: #1a1a1a; stroke: #1a1a1a; stroke-width: 0.8"/>
      </g>
     </g>
     <g id="text_11">
      <!-- 0.0 -->
      <g style="fill: #1a1a1a" transform="translate(67.41625 319.885806) scale(0.12 -0.12)">
       <use xlink:href="#DejaVuSans-30"/>
       <use xlink:href="#DejaVuSans-2e" x="63.623047"/>
       <use xlink:href="#DejaVuSans-30" x="95.410156"/>
      </g>
     </g>
    </g>
    <g id="ytick_3">
     <g id="line2d_23">
      <path d="M 90 265.4475 
L 648 265.4475 
" clip-path="url(#p4e9a7a3799)" style="fill: none; stroke-dasharray: 2.22,0.96; stroke-dashoffset: 0; stroke: #b0b0b0; stroke-opacity: 0.7; stroke-width: 0.6"/>
     </g>
     <g id="line2d_24">
      <g>
       <use xlink:href="#m44f08480be" x="90" y="265.4475" style="fill: #1a1a1a; stroke: #1a1a1a; stroke-width: 0.8"/>
      </g>
     </g>
     <g id="text_12">
      <!-- 0.2 -->
      <g style="fill: #1a1a1a" transform="translate(67.41625 270.006563) scale(0.12 -0.12)">
       <use xlink:href="#DejaVuSans-30"/>
       <use xlink:href="#DejaVuSans-2e" x="63.623047"/>
       <use xlink:href="#DejaVuSans-32" x="95.410156"/>
      </g>
     </g>
    </g>
    <g id="ytick_4">
     <g id="line2d_25">
      <path d="M 90 215.568258 
L 648 215.568258 
" clip-path="url(#p4e9a7a3799)" style="fill: none; stroke-dasharray: 2.22,0.96; stroke-dashoffset: 0; stroke: #b0b0b0; stroke-opacity: 0.7; stroke-width: 0.6"/>
     </g>
     <g id="line2d_26">
      <g>
       <use xlink:href="#m44f08480be" x="90" y="215.568258" style="fill: #1a1a1a; stroke: #1a1a1a; stroke-width: 0.8"/>
      </g>
     </g>
     <g id="text_13">
      <!-- 0.4 -->
      <g style="fill: #1a1a1a" transform="translate(67.41625 220.12732) scale(0.12 -0.12)">
       <defs>
        <path id="DejaVuSans-34" d="M 2419 4116 
L 825 1625 
L 2419 1625 
L 2419 4116 
z
M 2253 4666 
L 3047 4666 
L 3047 1625 
L 3713 1625 
L 3713 1100 
L 3047 1100 
L 3047 0 
L 2419 0 
L 2419 1100 
L 313 1100 
L 313 1709 
L 2253 4666 
z
" transform="scale(0.015625)"/>
       </defs>
       <use xlink:href="#DejaVuSans-30"/>
       <use xlink:href="#DejaVuSans-2e" x="63.623047"/>
       <use xlink:href="#DejaVuSans-34" x="95.410156"/>
      </g>
     </g>
    </g>
    <g id="ytick_5">
     <g id="line2d_27">
      <path d="M 90 165.689015 
L 648 165.689015 
" clip-path="url(#p4e9a7a3799)" style="fill: none; stroke-dasharray: 2.22,0.96; stroke-dashoffset: 0; stroke: #b0b0b0; stroke-opacity: 0.7; stroke-width: 0.6"/>
     </g>
     <g id="line2d_28">
      <g>
       <use xlink:href="#m44f08480be" x="90" y="165.689015" style="fill: #1a1a1a; stroke: #1a1a1a; stroke-width: 0.8"/>
      </g>
     </g>
     <g id="text_14">
      <!-- 0.6 -->
      <g style="fill: #1a1a1a" transform="translate(67.41625 170.248077) scale(0.12 -0.12)">
       <defs>
        <path id="DejaVuSans-36" d="M 2113 2584 
Q 1688 2584 1439 2293 
Q 1191 2003 1191 1497 
Q 1191 994 1439 701 
Q 1688 409 2113 409 
Q 2538 409 2786 701 
Q 3034 994 3034 1497 
Q 3034 2003 2786 2293 
Q 2538 2584 2113 2584 
z
M 3366 4563 
L 3366 3988 
Q 3128 4100 2886 4159 
Q 2644 4219 2406 4219 
Q 1781 4219 1451 3797 
Q 1122 3375 1075 2522 
Q 1259 2794 1537 2939 
Q 1816 3084 2150 3084 
Q 2853 3084 3261 2657 
Q 3669 2231 3669 1497 
Q 3669 778 3244 343 
Q 2819 -91 2113 -91 
Q 1303 -91 875 529 
Q 447 1150 447 2328 
Q 447 3434 972 4092 
Q 1497 4750 2381 4750 
Q 2619 4750 2861 4703 
Q 3103 4656 3366 4563 
z
" transform="scale(0.015625)"/>
       </defs>
       <use xlink:href="#DejaVuSans-30"/>
       <use xlink:href="#DejaVuSans-2e" x="63.623047"/>
       <use xlink:href="#DejaVuSans-36" x="95.410156"/>
      </g>
     </g>
    </g>
    <g id="ytick_6">
     <g id="line2d_29">
      <path d="M 90 115.809772 
L 648 115.809772 
" clip-path="url(#p4e9a7a3799)" style="fill: none; stroke-dasharray: 2.22,0.96; stroke-dashoffset: 0; stroke: #b0b0b0; stroke-opacity: 0.7; stroke-width: 0.6"/>
     </g>
     <g id="line2d_30">
      <g>
       <use xlink:href="#m44f08480be" x="90" y="115.809772" style="fill: #1a1a1a; stroke: #1a1a1a; stroke-width: 0.8"/>
      </g>
     </g>
     <g id="text_15">
      <!-- 0.8 -->
      <g style="fill: #1a1a1a" transform="translate(67.41625 120.368834) scale(0.12 -0.12)">
       <defs>
        <path id="DejaVuSans-38" d="M 2034 2216 
Q 1584 2216 1326 1975 
Q 1069 1734 1069 1313 
Q 1069 891 1326 650 
Q 1584 409 2034 409 
Q 2484 409 2743 651 
Q 3003 894 3003 1313 
Q 3003 1734 2745 1975 
Q 2488 2216 2034 2216 
z
M 1403 2484 
Q 997 2584 770 2862 
Q 544 3141 544 3541 
Q 544 4100 942 4425 
Q 1341 4750 2034 4750 
Q 2731 4750 3128 4425 
Q 3525 4100 3525 3541 
Q 3525 3141 3298 2862 
Q 3072 2584 2669 2484 
Q 3125 2378 3379 2068 
Q 3634 1759 3634 1313 
Q 3634 634 3220 271 
Q 2806 -91 2034 -91 
Q 1263 -91 848 271 
Q 434 634 434 1313 
Q 434 1759 690 2068 
Q 947 2378 1403 2484 
z
M 1172 3481 
Q 1172 3119 1398 2916 
Q 1625 2713 2034 2713 
Q 2441 2713 2670 2916 
Q 2900 3119 2900 3481 
Q 2900 3844 2670 4047 
Q 2441 4250 2034 4250 
Q 1625 4250 1398 4047 
Q 1172 3844 1172 3481 
z
" transform="scale(0.015625)"/>
       </defs>
       <use xlink:href="#DejaVuSans-30"/>
       <use xlink:href="#DejaVuSans-2e" x="63.623047"/>
       <use xlink:href="#DejaVuSans-38" x="95.410156"/>
      </g>
     </g>
    </g>
    <g id="ytick_7">
     <g id="line2d_31">
      <path d="M 90 65.930529 
L 648 65.930529 
" clip-path="url(#p4e9a7a3799)" style="fill: none; stroke-dasharray: 2.22,0.96; stroke-dashoffset: 0; stroke: #b0b0b0; stroke-opacity: 0.7; stroke-width: 0.6"/>
     </g>
     <g id="line2d_32">
      <g>
       <use xlink:href="#m44f08480be" x="90" y="65.930529" style="fill: #1a1a1a; stroke: #1a1a1a; stroke-width: 0.8"/>
      </g>
     </g>
     <g id="text_16">
      <!-- 1.0 -->
      <g style="fill: #1a1a1a" transform="translate(67.41625 70.489592) scale(0.12 -0.12)">
       <use xlink:href="#DejaVuSans-31"/>
       <use xlink:href="#DejaVuSans-2e" x="63.623047"/>
       <use xlink:href="#DejaVuSans-30" x="95.410156"/>
      </g>
     </g>
    </g>
   </g>
   <g id="line2d_33">
    <path d="M 115.363636 315.326743 
L 117.906357 317.688549 
L 119.177717 318.592557 
L 120.449077 319.182898 
L 121.720437 319.398013 
L 122.991798 319.212774 
L 124.263158 318.641339 
L 125.534518 317.736163 
L 128.077239 315.293842 
L 130.619959 312.81218 
L 131.891319 311.866339 
L 133.162679 311.252549 
L 134.43404 311.035074 
L 135.7054 311.239719 
L 136.97676 311.850867 
L 138.24812 312.812569 
L 140.790841 315.39621 
L 143.333561 318.01111 
L 144.604921 319.003561 
L 145.876282 319.643556 
L 147.147642 319.863791 
L 148.419002 319.637663 
L 149.690362 318.982371 
L 150.961722 317.957722 
L 153.504443 315.216401 
L 156.047163 312.452473 
L 157.318524 311.407758 
L 158.589884 310.738275 
L 159.861244 310.514783 
L 161.132604 310.764825 
L 162.403964 311.469481 
L 163.675325 312.564668 
L 166.218045 315.483079 
L 168.760766 318.414842 
L 170.032126 319.518585 
L 171.303486 320.221504 
L 172.574846 320.448887 
L 173.846206 320.172063 
L 175.117567 319.411829 
L 176.388927 318.23704 
L 178.931647 315.118272 
L 181.474368 311.996027 
L 182.745728 310.825072 
L 184.017088 310.083913 
L 185.288448 309.851824 
L 186.559809 310.158845 
L 187.831169 310.982129 
L 189.102529 312.247469 
L 191.645249 315.594811 
L 194.18797 318.935145 
L 195.45933 320.18334 
L 196.73069 320.96867 
L 198.002051 321.20653 
L 199.273411 320.865202 
L 200.544771 319.969769 
L 201.816131 318.60049 
L 204.358852 314.989892 
L 206.901572 311.397339 
L 208.172932 310.05943 
L 209.444293 309.222497 
L 210.715653 308.977443 
L 211.987013 309.358085 
L 213.258373 310.336896 
L 214.529733 311.826732 
L 217.072454 315.743867 
L 219.615174 319.631525 
L 220.886535 321.074927 
L 222.157895 321.972953 
L 223.429255 322.22714 
L 224.700615 321.801004 
L 225.971975 320.724731 
L 227.243336 319.093368 
L 229.786056 314.814714 
L 231.057416 312.580315 
L 232.328776 310.577037 
L 233.600137 309.007775 
L 234.871497 308.036279 
L 236.142857 307.770246 
L 237.414217 308.249619 
L 238.685578 309.441344 
L 239.956938 311.241227 
L 241.228298 313.482837 
L 243.771018 318.410548 
L 245.042379 320.612314 
L 246.313739 322.334361 
L 247.585099 323.395885 
L 248.856459 323.67768 
L 250.12782 323.1352 
L 251.39918 321.804535 
L 252.67054 319.800574 
L 253.9419 317.307353 
L 256.484621 311.829532 
L 257.755981 309.383189 
L 259.027341 307.471734 
L 260.298701 306.297335 
L 261.570062 305.993912 
L 262.841422 306.612327 
L 264.112782 308.113398 
L 265.384142 310.369619 
L 266.655502 313.175605 
L 269.198223 319.342444 
L 270.469583 322.097668 
L 271.740943 324.250132 
L 273.012303 325.570158 
L 274.283664 325.904408 
L 275.555024 325.193026 
L 276.826384 323.478044 
L 278.097744 320.901999 
L 279.369105 317.696634 
L 281.911825 310.641455 
L 283.183185 307.483784 
L 284.454545 305.014293 
L 285.725906 303.499364 
L 286.997266 303.119008 
L 288.268626 303.946511 
L 289.539986 305.937927 
L 290.811347 308.932739 
L 292.082707 312.665956 
L 294.625427 320.910198 
L 295.896787 324.614047 
L 297.168148 327.519205 
L 298.439508 329.308019 
L 299.710868 329.761845 
L 300.982228 328.786051 
L 302.253589 326.423817 
L 303.524949 322.856982 
L 304.796309 318.393436 
L 307.339029 308.475162 
L 308.61039 303.987645 
L 309.88175 300.44658 
L 311.15311 298.24586 
L 312.42447 297.664308 
L 313.69583 298.833489 
L 314.967191 301.718377 
L 316.238551 306.113266 
L 317.509911 311.653935 
L 321.323992 329.811034 
L 322.595352 334.366144 
L 323.866712 337.252135 
L 325.138072 338.086018 
L 326.409433 336.663927 
L 327.680793 332.990709 
L 328.952153 327.291429 
L 330.223513 320.002818 
L 334.037594 295.41107 
L 335.308954 288.990682 
L 336.580314 284.759122 
L 337.851675 283.31193 
L 339.123035 285.025023 
L 340.394395 290.003781 
L 341.665755 298.052672 
L 342.937116 308.669037 
L 348.022556 357.801278 
L 349.293917 365.68474 
L 350.565277 369.36 
L 351.836637 367.870526 
L 353.107997 360.560269 
L 354.379357 347.141912 
L 355.650718 327.739812 
L 356.922078 302.903393 
L 358.193438 273.589029 
L 360.736159 207.063575 
L 363.278879 141.426085 
L 364.550239 113.455962 
L 365.821599 90.912161 
L 367.09296 75.104291 
L 368.36432 66.96 
L 369.63568 66.96 
L 370.90704 75.104291 
L 372.178401 90.912161 
L 373.449761 113.455962 
L 374.721121 141.426085 
L 377.263841 207.063575 
L 379.806562 273.589029 
L 381.077922 302.903393 
L 382.349282 327.739812 
L 383.620643 347.141912 
L 384.892003 360.560269 
L 386.163363 367.870526 
L 387.434723 369.36 
L 388.706083 365.68474 
L 389.977444 357.801278 
L 391.248804 346.879151 
L 395.062884 308.669037 
L 396.334245 298.052672 
L 397.605605 290.003781 
L 398.876965 285.025023 
L 400.148325 283.31193 
L 401.419686 284.759122 
L 402.691046 288.990682 
L 403.962406 295.41107 
L 406.505126 311.744466 
L 407.776487 320.002818 
L 409.047847 327.291429 
L 410.319207 332.990709 
L 411.590567 336.663927 
L 412.861928 338.086018 
L 414.133288 337.252135 
L 415.404648 334.366144 
L 416.676008 329.811034 
L 417.947368 324.104683 
L 420.490089 311.653935 
L 421.761449 306.113266 
L 423.032809 301.718377 
L 424.30417 298.833489 
L 425.57553 297.664308 
L 426.84689 298.24586 
L 428.11825 300.44658 
L 429.38961 303.987645 
L 430.660971 308.475162 
L 433.203691 318.393436 
L 434.475051 322.856982 
L 435.746411 326.423817 
L 437.017772 328.786051 
L 438.289132 329.761845 
L 439.560492 329.308019 
L 440.831852 327.519205 
L 442.103213 324.614047 
L 443.374573 320.910198 
L 445.917293 312.665956 
L 447.188653 308.932739 
L 448.460014 305.937927 
L 449.731374 303.946511 
L 451.002734 303.119008 
L 452.274094 303.499364 
L 453.545455 305.014293 
L 454.816815 307.483784 
L 456.088175 310.641455 
L 459.902256 320.901999 
L 461.173616 323.478044 
L 462.444976 325.193026 
L 463.716336 325.904408 
L 464.987697 325.570158 
L 466.259057 324.250132 
L 467.530417 322.097668 
L 468.801777 319.342444 
L 472.615858 310.369619 
L 473.887218 308.113398 
L 475.158578 306.612327 
L 476.429938 305.993912 
L 477.701299 306.297335 
L 478.972659 307.471734 
L 480.244019 309.383189 
L 481.515379 311.829532 
L 485.32946 319.800574 
L 486.60082 321.804535 
L 487.87218 323.1352 
L 489.143541 323.67768 
L 490.414901 323.395885 
L 491.686261 322.334361 
L 492.957621 320.612314 
L 494.228982 318.410548 
L 498.043062 311.241227 
L 499.314422 309.441344 
L 500.585783 308.249619 
L 501.857143 307.770246 
L 503.128503 308.036279 
L 504.399863 309.007775 
L 505.671224 310.577037 
L 506.942584 312.580315 
L 510.756664 319.093368 
L 512.028025 320.724731 
L 513.299385 321.801004 
L 514.570745 322.22714 
L 515.842105 321.972953 
L 517.113465 321.074927 
L 518.384826 319.631525 
L 519.656186 317.79258 
L 523.470267 311.826732 
L 524.741627 310.336896 
L 526.012987 309.358085 
L 527.284347 308.977443 
L 528.555707 309.222497 
L 529.827068 310.05943 
L 531.098428 311.397339 
L 532.369788 313.097967 
L 536.183869 318.60049 
L 537.455229 319.969769 
L 538.726589 320.865202 
L 539.997949 321.20653 
L 541.26931 320.96867 
L 542.54067 320.18334 
L 543.81203 318.935145 
L 546.354751 315.594811 
L 548.897471 312.247469 
L 550.168831 310.982129 
L 551.440191 310.158845 
L 552.711552 309.851824 
L 553.982912 310.083913 
L 555.254272 310.825072 
L 556.525632 311.996027 
L 559.068353 315.118272 
L 561.611073 318.23704 
L 562.882433 319.411829 
L 564.153794 320.172063 
L 565.425154 320.448887 
L 566.696514 320.221504 
L 567.967874 319.518585 
L 569.239234 318.414842 
L 571.781955 315.483079 
L 574.324675 312.564668 
L 575.596036 311.469481 
L 576.867396 310.764825 
L 578.138756 310.514783 
L 579.410116 310.738275 
L 580.681476 311.407758 
L 581.952837 312.452473 
L 584.495557 315.216401 
L 587.038278 317.957722 
L 588.309638 318.982371 
L 589.580998 319.637663 
L 590.852358 319.863791 
L 592.123718 319.643556 
L 593.395079 319.003561 
L 594.666439 318.01111 
L 597.209159 315.39621 
L 599.75188 312.812569 
L 601.02324 311.850867 
L 602.2946 311.239719 
L 603.56596 311.035074 
L 604.837321 311.252549 
L 606.108681 311.866339 
L 607.380041 312.81218 
L 609.922761 315.293842 
L 612.465482 317.736163 
L 613.736842 318.641339 
L 615.008202 319.212774 
L 616.279563 319.398013 
L 617.550923 319.182898 
L 618.822283 318.592557 
L 620.093643 317.688549 
L 622.636364 315.326743 
L 622.636364 315.326743 
" clip-path="url(#p4e9a7a3799)" style="fill: none; stroke: #ffaf00; stroke-width: 1.5; stroke-linecap: square"/>
   </g>
   <g id="line2d_34">
    <path d="M 90 315.326743 
L 648 315.326743 
" clip-path="url(#p4e9a7a3799)" style="fill: none; stroke-dasharray: 5.55,2.4; stroke-dashoffset: 0; stroke: #808080; stroke-width: 1.5"/>
   </g>
   <g id="line2d_35">
    <path d="M 369 384.48 
L 369 51.84 
" clip-path="url(#p4e9a7a3799)" style="fill: none; stroke-dasharray: 5.55,2.4; stroke-dashoffset: 0; stroke: #808080; stroke-width: 1.5"/>
   </g>
   <g id="patch_3">
    <path d="M 90 384.48 
L 90 51.84 
" style="fill: none; stroke: #1a1a1a; stroke-linejoin: miter; stroke-linecap: square"/>
   </g>
   <g id="patch_4">
    <path d="M 90 384.48 
L 648 384.48 
" style="fill: none; stroke: #1a1a1a; stroke-linejoin: miter; stroke-linecap: square"/>
   </g>
   <g id="text_17">
    <!-- ゼロ点分布イメージ -->
    <g style="fill: #333333" transform="translate(325.78875 45.84) scale(0.16 -0.16)">
     <defs>
      <path id="DejaVuSans-30bc" d="M 319 -1131 
L 319 4513 
L 3519 4513 
L 3519 -1131 
L 319 -1131 
z
M 678 -775 
L 3163 -775 
L 3163 4153 
L 678 4153 
L 678 -775 
z
" transform="scale(0.015625)"/>
      <path id="DejaVuSans-30ed" d="M 319 -1131 
L 319 4513 
L 3519 4513 
L 3519 -1131 
L 319 -1131 
z
M 678 -775 
L 3163 -775 
L 3163 4153 
L 678 4153 
L 678 -775 
z
" transform="scale(0.015625)"/>
      <path id="DejaVuSans-70b9" d="M 319 -1131 
L 319 4513 
L 3519 4513 
L 3519 -1131 
L 319 -1131 
z
M 678 -775 
L 3163 -775 
L 3163 4153 
L 678 4153 
L 678 -775 
z
" transform="scale(0.015625)"/>
      <path id="DejaVuSans-5206" d="M 319 -1131 
L 319 4513 
L 3519 4513 
L 3519 -1131 
L 319 -1131 
z
M 678 -775 
L 3163 -775 
L 3163 4153 
L 678 4153 
L 678 -775 
z
" transform="scale(0.015625)"/>
      <path id="DejaVuSans-5e03" d="M 319 -1131 
L 319 4513 
L 3519 4513 
L 3519 -1131 
L 319 -1131 
z
M 678 -775 
L 3163 -775 
L 3163 4153 
L 678 4153 
L 678 -775 
z
" transform="scale(0.015625)"/>
      <path id="DejaVuSans-30a4" d="M 319 -1131 
L 319 4513 
L 3519 4513 
L 3519 -1131 
L 319 -1131 
z
M 678 -775 
L 3163 -775 
L 3163 4153 
L 678 4153 
L 678 -775 
z
" transform="scale(0.015625)"/>
      <path id="DejaVuSans-30e1" d="M 319 -1131 
L 319 4513 
L 3519 4513 
L 3519 -1131 
L 319 -1131 
z
M 678 -775 
L 3163 -775 
L 3163 4153 
L 678 4153 
L 678 -775 
z
" transform="scale(0.015625)"/>
      <path id="DejaVuSans-30fc" d="M 319 -1131 
L 319 4513 
L 3519 4513 
L 3519 -1131 
L 319 -1131 
z
M 678 -775 
L 3163 -775 
L 3163 4153 
L 678 4153 
L 678 -775 
z
" transform="scale(0.015625)"/>
      <path id="DejaVuSans-30b8" d="M 319 -1131 
L 319 4513 
L 3519 4513 
L 3519 -1131 
L 319 -1131 
z
M 678 -775 
L 3163 -775 
L 3163 4153 
L 678 4153 
L 678 -775 
z
" transform="scale(0.015625)"/>
     </defs>
     <use xlink:href="#DejaVuSans-30bc"/>
     <use xlink:href="#DejaVuSans-30ed" x="60.009766"/>
     <use xlink:href="#DejaVuSans-70b9" x="120.019531"/>
     <use xlink:href="#DejaVuSans-5206" x="180.029297"/>
     <use xlink:href="#DejaVuSans-5e03" x="240.039062"/>
     <use xlink:href="#DejaVuSans-30a4" x="300.048828"/>
     <use xlink:href="#DejaVuSans-30e1" x="360.058594"/>
     <use xlink:href="#DejaVuSans-30fc" x="420.068359"/>
     <use xlink:href="#DejaVuSans-30b8" x="480.078125"/>
    </g>
   </g>
   <g id="legend_1">
    <g id="patch_5">
     <path d="M 555.548437 74.538437 
L 641 74.538437 
Q 643 74.538437 643 72.538437 
L 643 58.84 
Q 643 56.84 641 56.84 
L 555.548437 56.84 
Q 553.548437 56.84 553.548437 58.84 
L 553.548437 72.538437 
Q 553.548437 74.538437 555.548437 74.538437 
z
" style="fill: #ffffff; opacity: 0.8; stroke: #cccccc; stroke-linejoin: miter"/>
    </g>
    <g id="line2d_36">
     <path d="M 557.548437 64.938437 
L 567.548437 64.938437 
L 577.548437 64.938437 
" style="fill: none; stroke: #ffaf00; stroke-width: 1.5; stroke-linecap: square"/>
    </g>
    <g id="text_18">
     <!-- ζ関数の模擬ゼロ点 -->
     <g style="fill: #333333" transform="translate(585.548437 68.438437) scale(0.1 -0.1)">
      <defs>
       <path id="DejaVuSans-3b6" d="M 2231 397 
Q 2644 394 2891 159 
Q 3153 -88 3153 -463 
Q 3153 -822 2922 -1072 
Q 2672 -1344 2163 -1344 
Q 2163 -1109 2163 -872 
Q 2378 -888 2509 -750 
Q 2609 -641 2609 -525 
Q 2609 -359 2509 -222 
Q 2413 -91 2231 -91 
Q 338 -91 334 1669 
Q 334 3206 2119 4284 
L 456 4284 
L 456 4863 
L 3175 4863 
L 3175 4284 
Q 913 3147 913 1669 
Q 913 397 2231 397 
z
" transform="scale(0.015625)"/>
       <path id="DejaVuSans-95a2" d="M 319 -1131 
L 319 4513 
L 3519 4513 
L 3519 -1131 
L 319 -1131 
z
M 678 -775 
L 3163 -775 
L 3163 4153 
L 678 4153 
L 678 -775 
z
" transform="scale(0.015625)"/>
       <path id="DejaVuSans-6570" d="M 319 -1131 
L 319 4513 
L 3519 4513 
L 3519 -1131 
L 319 -1131 
z
M 678 -775 
L 3163 -775 
L 3163 4153 
L 678 4153 
L 678 -775 
z
" transform="scale(0.015625)"/>
       <path id="DejaVuSans-306e" d="M 319 -1131 
L 319 4513 
L 3519 4513 
L 3519 -1131 
L 319 -1131 
z
M 678 -775 
L 3163 -775 
L 3163 4153 
L 678 4153 
L 678 -775 
z
" transform="scale(0.015625)"/>
       <path id="DejaVuSans-6a21" d="M 319 -1131 
L 319 4513 
L 3519 4513 
L 3519 -1131 
L 319 -1131 
z
M 678 -775 
L 3163 -775 
L 3163 4153 
L 678 4153 
L 678 -775 
z
" transform="scale(0.015625)"/>
       <path id="DejaVuSans-64ec" d="M 319 -1131 
L 319 4513 
L 3519 4513 
L 3519 -1131 
L 319 -1131 
z
M 678 -775 
L 3163 -775 
L 3163 4153 
L 678 4153 
L 678 -775 
z
" transform="scale(0.015625)"/>
      </defs>
      <use xlink:href="#DejaVuSans-3b6"/>
      <use xlink:href="#DejaVuSans-95a2" x="54.394531"/>
      <use xlink:href="#DejaVuSans-6570" x="114.404297"/>
      <use xlink:href="#DejaVuSans-306e" x="174.414062"/>
      <use xlink:href="#DejaVuSans-6a21" x="234.423828"/>
      <use xlink:href="#DejaVuSans-64ec" x="294.433594"/>
      <use xlink:href="#DejaVuSans-30bc" x="354.443359"/>
      <use xlink:href="#DejaVuSans-30ed" x="414.453125"/>
      <use xlink:href="#DejaVuSans-70b9" x="474.462891"/>
     </g>
    </g>
   </g>
  </g>
 </g>
 <defs>
  <clipPath id="p4e9a7a3799">
   <rect x="90" y="51.84" width="558" height="332.64"/>
  </clipPath>
 </defs>
</svg>
